<mxfile host="app.diagrams.net" modified="2023-09-26T11:18:04.871Z" agent="Mozilla/5.0 (Macintosh; Intel Mac OS X 10_15_7) AppleWebKit/537.36 (KHTML, like Gecko) Chrome/116.0.0.0 Safari/537.36" etag="_9aXpjVlDzPZmdesW2Pv" version="21.7.5" type="github">
  <diagram id="C5RBs43oDa-KdzZeNtuy" name="Page-1">
    <mxGraphModel dx="1167" dy="705" grid="1" gridSize="10" guides="1" tooltips="1" connect="1" arrows="1" fold="1" page="1" pageScale="1" pageWidth="827" pageHeight="1169" math="0" shadow="0">
      <root>
        <mxCell id="WIyWlLk6GJQsqaUBKTNV-0" />
        <mxCell id="WIyWlLk6GJQsqaUBKTNV-1" parent="WIyWlLk6GJQsqaUBKTNV-0" />
        <mxCell id="1_jVmQpEp7RTtNIGl7X--2" value="" style="edgeStyle=orthogonalEdgeStyle;rounded=0;orthogonalLoop=1;jettySize=auto;html=1;" edge="1" parent="WIyWlLk6GJQsqaUBKTNV-1" source="1_jVmQpEp7RTtNIGl7X--0" target="1_jVmQpEp7RTtNIGl7X--1">
          <mxGeometry relative="1" as="geometry" />
        </mxCell>
        <mxCell id="1_jVmQpEp7RTtNIGl7X--0" value="elevator" style="rounded=1;whiteSpace=wrap;html=1;" vertex="1" parent="WIyWlLk6GJQsqaUBKTNV-1">
          <mxGeometry x="310" y="200" width="120" height="50" as="geometry" />
        </mxCell>
        <mxCell id="1_jVmQpEp7RTtNIGl7X--4" value="" style="edgeStyle=orthogonalEdgeStyle;rounded=0;orthogonalLoop=1;jettySize=auto;html=1;" edge="1" parent="WIyWlLk6GJQsqaUBKTNV-1" source="1_jVmQpEp7RTtNIGl7X--1" target="1_jVmQpEp7RTtNIGl7X--3">
          <mxGeometry relative="1" as="geometry" />
        </mxCell>
        <mxCell id="1_jVmQpEp7RTtNIGl7X--1" value="输入想去的楼层" style="shape=parallelogram;perimeter=parallelogramPerimeter;whiteSpace=wrap;html=1;fixedSize=1;" vertex="1" parent="WIyWlLk6GJQsqaUBKTNV-1">
          <mxGeometry x="310" y="280" width="120" height="60" as="geometry" />
        </mxCell>
        <mxCell id="1_jVmQpEp7RTtNIGl7X--6" value="" style="edgeStyle=orthogonalEdgeStyle;rounded=0;orthogonalLoop=1;jettySize=auto;html=1;" edge="1" parent="WIyWlLk6GJQsqaUBKTNV-1" source="1_jVmQpEp7RTtNIGl7X--3" target="1_jVmQpEp7RTtNIGl7X--5">
          <mxGeometry relative="1" as="geometry" />
        </mxCell>
        <mxCell id="1_jVmQpEp7RTtNIGl7X--7" value="Yes" style="edgeLabel;html=1;align=center;verticalAlign=middle;resizable=0;points=[];" vertex="1" connectable="0" parent="1_jVmQpEp7RTtNIGl7X--6">
          <mxGeometry x="-0.2889" y="-1" relative="1" as="geometry">
            <mxPoint y="-11" as="offset" />
          </mxGeometry>
        </mxCell>
        <mxCell id="1_jVmQpEp7RTtNIGl7X--11" value="" style="edgeStyle=orthogonalEdgeStyle;rounded=0;orthogonalLoop=1;jettySize=auto;html=1;" edge="1" parent="WIyWlLk6GJQsqaUBKTNV-1" source="1_jVmQpEp7RTtNIGl7X--3" target="1_jVmQpEp7RTtNIGl7X--10">
          <mxGeometry relative="1" as="geometry" />
        </mxCell>
        <mxCell id="1_jVmQpEp7RTtNIGl7X--12" value="No" style="edgeLabel;html=1;align=center;verticalAlign=middle;resizable=0;points=[];" vertex="1" connectable="0" parent="1_jVmQpEp7RTtNIGl7X--11">
          <mxGeometry x="-0.0818" y="-3" relative="1" as="geometry">
            <mxPoint x="13" as="offset" />
          </mxGeometry>
        </mxCell>
        <mxCell id="1_jVmQpEp7RTtNIGl7X--3" value="输入是否为0？" style="rhombus;whiteSpace=wrap;html=1;" vertex="1" parent="WIyWlLk6GJQsqaUBKTNV-1">
          <mxGeometry x="305" y="370" width="130" height="80" as="geometry" />
        </mxCell>
        <mxCell id="1_jVmQpEp7RTtNIGl7X--5" value="程序结束" style="rounded=1;whiteSpace=wrap;html=1;" vertex="1" parent="WIyWlLk6GJQsqaUBKTNV-1">
          <mxGeometry x="490" y="380" width="120" height="60" as="geometry" />
        </mxCell>
        <mxCell id="1_jVmQpEp7RTtNIGl7X--16" style="edgeStyle=orthogonalEdgeStyle;rounded=0;orthogonalLoop=1;jettySize=auto;html=1;entryX=0.037;entryY=0.58;entryDx=0;entryDy=0;entryPerimeter=0;" edge="1" parent="WIyWlLk6GJQsqaUBKTNV-1" source="1_jVmQpEp7RTtNIGl7X--10" target="1_jVmQpEp7RTtNIGl7X--1">
          <mxGeometry relative="1" as="geometry">
            <Array as="points">
              <mxPoint x="260" y="530" />
              <mxPoint x="260" y="315" />
            </Array>
          </mxGeometry>
        </mxCell>
        <mxCell id="1_jVmQpEp7RTtNIGl7X--17" value="No" style="edgeLabel;html=1;align=center;verticalAlign=middle;resizable=0;points=[];" vertex="1" connectable="0" parent="1_jVmQpEp7RTtNIGl7X--16">
          <mxGeometry x="-0.0429" y="-2" relative="1" as="geometry">
            <mxPoint as="offset" />
          </mxGeometry>
        </mxCell>
        <mxCell id="1_jVmQpEp7RTtNIGl7X--19" value="yes" style="edgeStyle=orthogonalEdgeStyle;rounded=0;orthogonalLoop=1;jettySize=auto;html=1;" edge="1" parent="WIyWlLk6GJQsqaUBKTNV-1" source="1_jVmQpEp7RTtNIGl7X--10" target="1_jVmQpEp7RTtNIGl7X--18">
          <mxGeometry y="10" relative="1" as="geometry">
            <mxPoint as="offset" />
          </mxGeometry>
        </mxCell>
        <mxCell id="1_jVmQpEp7RTtNIGl7X--10" value="输入是否为整数？" style="rhombus;whiteSpace=wrap;html=1;" vertex="1" parent="WIyWlLk6GJQsqaUBKTNV-1">
          <mxGeometry x="305" y="490" width="130" height="80" as="geometry" />
        </mxCell>
        <mxCell id="1_jVmQpEp7RTtNIGl7X--20" style="edgeStyle=orthogonalEdgeStyle;rounded=0;orthogonalLoop=1;jettySize=auto;html=1;exitX=0;exitY=0.5;exitDx=0;exitDy=0;entryX=0;entryY=0.25;entryDx=0;entryDy=0;" edge="1" parent="WIyWlLk6GJQsqaUBKTNV-1" source="1_jVmQpEp7RTtNIGl7X--18" target="1_jVmQpEp7RTtNIGl7X--1">
          <mxGeometry relative="1" as="geometry">
            <Array as="points">
              <mxPoint x="230" y="650" />
              <mxPoint x="230" y="299" />
            </Array>
          </mxGeometry>
        </mxCell>
        <mxCell id="1_jVmQpEp7RTtNIGl7X--21" value="yes" style="edgeLabel;html=1;align=center;verticalAlign=middle;resizable=0;points=[];" vertex="1" connectable="0" parent="1_jVmQpEp7RTtNIGl7X--20">
          <mxGeometry x="0.0351" y="1" relative="1" as="geometry">
            <mxPoint as="offset" />
          </mxGeometry>
        </mxCell>
        <mxCell id="1_jVmQpEp7RTtNIGl7X--23" value="" style="edgeStyle=orthogonalEdgeStyle;rounded=0;orthogonalLoop=1;jettySize=auto;html=1;" edge="1" parent="WIyWlLk6GJQsqaUBKTNV-1" source="1_jVmQpEp7RTtNIGl7X--18" target="1_jVmQpEp7RTtNIGl7X--22">
          <mxGeometry relative="1" as="geometry" />
        </mxCell>
        <mxCell id="1_jVmQpEp7RTtNIGl7X--18" value="楼层是否等于14/18" style="rhombus;whiteSpace=wrap;html=1;" vertex="1" parent="WIyWlLk6GJQsqaUBKTNV-1">
          <mxGeometry x="305" y="610" width="130" height="80" as="geometry" />
        </mxCell>
        <mxCell id="1_jVmQpEp7RTtNIGl7X--25" value="" style="edgeStyle=orthogonalEdgeStyle;rounded=0;orthogonalLoop=1;jettySize=auto;html=1;" edge="1" parent="WIyWlLk6GJQsqaUBKTNV-1" source="1_jVmQpEp7RTtNIGl7X--22" target="1_jVmQpEp7RTtNIGl7X--24">
          <mxGeometry relative="1" as="geometry" />
        </mxCell>
        <mxCell id="1_jVmQpEp7RTtNIGl7X--22" value="计算楼层高度" style="rounded=1;whiteSpace=wrap;html=1;" vertex="1" parent="WIyWlLk6GJQsqaUBKTNV-1">
          <mxGeometry x="310" y="720" width="120" height="60" as="geometry" />
        </mxCell>
        <mxCell id="1_jVmQpEp7RTtNIGl7X--31" style="edgeStyle=orthogonalEdgeStyle;rounded=0;orthogonalLoop=1;jettySize=auto;html=1;exitX=0;exitY=0.5;exitDx=0;exitDy=0;entryX=0;entryY=0.25;entryDx=0;entryDy=0;" edge="1" parent="WIyWlLk6GJQsqaUBKTNV-1">
          <mxGeometry relative="1" as="geometry">
            <mxPoint x="320" y="831.54" as="sourcePoint" />
            <mxPoint x="323.8461538461538" y="290.0015384615385" as="targetPoint" />
            <Array as="points">
              <mxPoint x="180" y="832" />
              <mxPoint x="180" y="270" />
              <mxPoint x="324" y="270" />
            </Array>
          </mxGeometry>
        </mxCell>
        <mxCell id="1_jVmQpEp7RTtNIGl7X--24" value="输出楼层高度" style="shape=parallelogram;perimeter=parallelogramPerimeter;whiteSpace=wrap;html=1;fixedSize=1;" vertex="1" parent="WIyWlLk6GJQsqaUBKTNV-1">
          <mxGeometry x="310" y="810" width="120" height="60" as="geometry" />
        </mxCell>
      </root>
    </mxGraphModel>
  </diagram>
</mxfile>
